
<svg viewBox="0 0 500 500" class="avatar svg" xmlns="http://www.w3.org/2000/svg" xmlns:svg="http://www.w3.org/2000/svg">
  <title>Avatar</title>
   <path d="m250.38096,101c-49.47992,0 -89.86667,38.35625 -89.86667,85.34851c0,29.17778 15.66739,55.08399 39.31666,70.48872c-45.92119,18.55321 -77.83096,61.92193 -77.83096,112.40094l25.6762,0c0,-54.46049 45.36126,-97.54116 102.70476,-97.54116c57.34348,0 102.70475,43.08068 102.70475,97.54116l25.6762,0c0,-50.479 -31.90977,-93.84773 -77.83094,-112.40094c23.64926,-15.40474 39.31666,-41.31095 39.31666,-70.48872c0,-46.99226 -40.38675,-85.34851 -89.86667,-85.34851l0.00001,0zm0,24.38529c35.60347,0 64.19047,27.14975 64.19047,60.96322c0,33.81348 -28.587,60.96322 -64.19047,60.96322c-35.60348,0 -64.19049,-27.14975 -64.19049,-60.96322c0,-33.81348 28.587,-60.96322 64.19049,-60.96322z" stroke="#000000" stroke-width="6" fill="#000000" class="avatar svg-stroke"/>
</svg>
